<svg xmlns="http://www.w3.org/2000/svg" xmlns:xlink="http://www.w3.org/1999/xlink" width="500" zoomAndPan="magnify" viewBox="0 0 375 374.999991" height="500" preserveAspectRatio="xMidYMid meet" version="1.0"><defs><g/><clipPath id="7c4ab9072b"><path d="M 0 92.894531 L 82.386719 92.894531 L 82.386719 271.128906 L 0 271.128906 Z M 0 92.894531 " clip-rule="nonzero"/></clipPath></defs><g clip-path="url(#7c4ab9072b)"><path fill="#e6e6dd" d="M 0 92.894531 L 82.386719 92.894531 L 82.386719 271.183594 L 0 271.183594 Z M 0 92.894531 " fill-opacity="1" fill-rule="nonzero"/></g><g fill="#e6e6dd" fill-opacity="1"><g transform="translate(88.784087, 267.975333)"><g><path d="M 2.984375 0 L 19.484375 -170.796875 L 77.34375 -170.796875 L 93.640625 0 L 61.234375 0 L 58.859375 -27.640625 L 38.171875 -27.640625 L 36.1875 0 Z M 40.765625 -54.875 L 56.265625 -54.875 L 48.71875 -141.765625 L 47.125 -141.765625 Z M 40.765625 -54.875 "/></g></g></g><g fill="#e6e6dd" fill-opacity="1"><g transform="translate(185.212616, 267.975333)"><g><path d="M 7.5625 -170.796875 L 52.6875 -170.796875 C 66.34375 -170.796875 76.085938 -166.382812 81.921875 -157.5625 C 87.753906 -148.75 90.671875 -135.863281 90.671875 -118.90625 C 90.671875 -101.9375 88.082031 -89.144531 82.90625 -80.53125 C 77.738281 -71.914062 68.460938 -67.609375 55.078125 -67.609375 L 41.15625 -67.609375 L 41.15625 0 L 7.5625 0 Z M 43.140625 -98.421875 C 47.253906 -98.421875 50.269531 -99.179688 52.1875 -100.703125 C 54.113281 -102.234375 55.375 -104.421875 55.96875 -107.265625 C 56.5625 -110.117188 56.859375 -114.195312 56.859375 -119.5 C 56.859375 -126.65625 56.0625 -131.820312 54.46875 -135 C 52.882812 -138.1875 49.707031 -139.78125 44.9375 -139.78125 L 41.15625 -139.78125 L 41.15625 -98.421875 Z M 43.140625 -98.421875 "/></g></g></g><g fill="#e6e6dd" fill-opacity="1"><g transform="translate(279.056437, 267.975333)"><g><path d="M 7.5625 -170.796875 L 52.6875 -170.796875 C 66.34375 -170.796875 76.085938 -166.382812 81.921875 -157.5625 C 87.753906 -148.75 90.671875 -135.863281 90.671875 -118.90625 C 90.671875 -101.9375 88.082031 -89.144531 82.90625 -80.53125 C 77.738281 -71.914062 68.460938 -67.609375 55.078125 -67.609375 L 41.15625 -67.609375 L 41.15625 0 L 7.5625 0 Z M 43.140625 -98.421875 C 47.253906 -98.421875 50.269531 -99.179688 52.1875 -100.703125 C 54.113281 -102.234375 55.375 -104.421875 55.96875 -107.265625 C 56.5625 -110.117188 56.859375 -114.195312 56.859375 -119.5 C 56.859375 -126.65625 56.0625 -131.820312 54.46875 -135 C 52.882812 -138.1875 49.707031 -139.78125 44.9375 -139.78125 L 41.15625 -139.78125 L 41.15625 -98.421875 Z M 43.140625 -98.421875 "/></g></g></g><g fill="#2b2b2b" fill-opacity="1"><g transform="translate(67.009948, 239.090037)"><g><path d="M 0 -2.4375 L -55.25 -2.4375 L -55.25 -24.5625 L -44.5 -24.5625 L -44.5 -13.5625 L -35.6875 -13.5625 L -35.6875 -23.984375 L -25.078125 -23.984375 L -25.078125 -13.5625 L 0 -13.5625 Z M 0 -2.4375 "/></g></g></g><g fill="#2b2b2b" fill-opacity="1"><g transform="translate(67.009948, 213.436142)"><g><path d="M 0 -1.921875 L -55.25 -1.921875 L -55.25 -12.609375 L 0 -12.609375 Z M 0 -1.921875 "/></g></g></g><g fill="#2b2b2b" fill-opacity="1"><g transform="translate(67.009948, 198.841069)"><g><path d="M 0 -2.4375 L -55.25 -2.4375 L -55.25 -13.5 L -9.390625 -13.5 L -9.390625 -24.890625 L 0 -24.890625 Z M 0 -2.4375 "/></g></g></g><g fill="#2b2b2b" fill-opacity="1"><g transform="translate(67.009948, 173.315769)"><g><path d="M 0 -2.4375 L -55.25 -2.4375 L -55.25 -19.296875 L -21.546875 -23.921875 L -55.25 -28.5625 L -55.25 -45.53125 L 0 -45.53125 L 0 -35.4375 L -39.8125 -35.4375 L 0 -29.0625 L 0 -19.171875 L -39.8125 -12.40625 L 0 -12.40625 Z M 0 -2.4375 "/></g></g></g></svg>