<svg xmlns="http://www.w3.org/2000/svg" xmlns:xlink="http://www.w3.org/1999/xlink" width="500" zoomAndPan="magnify" viewBox="0 0 375 374.999991" height="500" preserveAspectRatio="xMidYMid meet" version="1.0"><defs><g/><clipPath id="a04079c1fb"><path d="M 0 92.605469 L 82.636719 92.605469 L 82.636719 271.382812 L 0 271.382812 Z M 0 92.605469 " clip-rule="nonzero"/></clipPath></defs><g fill="#2b2b2b" fill-opacity="1"><g transform="translate(88.460602, 268.220117)"><g><path d="M 2.984375 0 L 19.546875 -171.296875 L 77.578125 -171.296875 L 93.921875 0 L 61.421875 0 L 59.03125 -27.71875 L 38.28125 -27.71875 L 36.296875 0 Z M 40.875 -55.046875 L 56.4375 -55.046875 L 48.859375 -142.1875 L 47.265625 -142.1875 Z M 40.875 -55.046875 "/></g></g></g><g fill="#2b2b2b" fill-opacity="1"><g transform="translate(185.18243, 268.220117)"><g><path d="M 7.578125 -171.296875 L 52.84375 -171.296875 C 66.539062 -171.296875 76.3125 -166.875 82.15625 -158.03125 C 88.007812 -149.195312 90.9375 -136.269531 90.9375 -119.25 C 90.9375 -102.238281 88.34375 -89.410156 83.15625 -80.765625 C 77.96875 -72.117188 68.660156 -67.796875 55.234375 -67.796875 L 41.28125 -67.796875 L 41.28125 0 L 7.578125 0 Z M 43.28125 -98.71875 C 47.394531 -98.71875 50.414062 -99.476562 52.34375 -101 C 54.269531 -102.53125 55.53125 -104.722656 56.125 -107.578125 C 56.726562 -110.441406 57.03125 -114.535156 57.03125 -119.859375 C 57.03125 -127.035156 56.234375 -132.21875 54.640625 -135.40625 C 53.046875 -138.59375 49.851562 -140.1875 45.0625 -140.1875 L 41.28125 -140.1875 L 41.28125 -98.71875 Z M 43.28125 -98.71875 "/></g></g></g><g fill="#2b2b2b" fill-opacity="1"><g transform="translate(279.311689, 268.220117)"><g><path d="M 7.578125 -171.296875 L 52.84375 -171.296875 C 66.539062 -171.296875 76.3125 -166.875 82.15625 -158.03125 C 88.007812 -149.195312 90.9375 -136.269531 90.9375 -119.25 C 90.9375 -102.238281 88.34375 -89.410156 83.15625 -80.765625 C 77.96875 -72.117188 68.660156 -67.796875 55.234375 -67.796875 L 41.28125 -67.796875 L 41.28125 0 L 7.578125 0 Z M 43.28125 -98.71875 C 47.394531 -98.71875 50.414062 -99.476562 52.34375 -101 C 54.269531 -102.53125 55.53125 -104.722656 56.125 -107.578125 C 56.726562 -110.441406 57.03125 -114.535156 57.03125 -119.859375 C 57.03125 -127.035156 56.234375 -132.21875 54.640625 -135.40625 C 53.046875 -138.59375 49.851562 -140.1875 45.0625 -140.1875 L 41.28125 -140.1875 L 41.28125 -98.71875 Z M 43.28125 -98.71875 "/></g></g></g><g clip-path="url(#a04079c1fb)"><path fill="#2b2b2b" d="M 0 92.605469 L 82.636719 92.605469 L 82.636719 271.4375 L 0 271.4375 Z M 0 92.605469 " fill-opacity="1" fill-rule="nonzero"/></g><g fill="#e6e6dd" fill-opacity="1"><g transform="translate(67.213764, 239.246977)"><g><path d="M 0 -2.453125 L -55.40625 -2.453125 L -55.40625 -24.640625 L -44.640625 -24.640625 L -44.640625 -13.609375 L -35.796875 -13.609375 L -35.796875 -24.0625 L -25.15625 -24.0625 L -25.15625 -13.609375 L 0 -13.609375 Z M 0 -2.453125 "/></g></g></g><g fill="#e6e6dd" fill-opacity="1"><g transform="translate(67.213764, 213.515054)"><g><path d="M 0 -1.9375 L -55.40625 -1.9375 L -55.40625 -12.640625 L 0 -12.640625 Z M 0 -1.9375 "/></g></g></g><g fill="#e6e6dd" fill-opacity="1"><g transform="translate(67.213764, 198.875589)"><g><path d="M 0 -2.453125 L -55.40625 -2.453125 L -55.40625 -13.546875 L -9.421875 -13.546875 L -9.421875 -24.96875 L 0 -24.96875 Z M 0 -2.453125 "/></g></g></g><g fill="#e6e6dd" fill-opacity="1"><g transform="translate(67.213764, 173.272652)"><g><path d="M 0 -2.453125 L -55.40625 -2.453125 L -55.40625 -19.34375 L -21.609375 -24 L -55.40625 -28.640625 L -55.40625 -45.671875 L 0 -45.671875 L 0 -35.546875 L -39.921875 -35.546875 L 0 -29.15625 L 0 -19.21875 L -39.921875 -12.453125 L 0 -12.453125 Z M 0 -2.453125 "/></g></g></g></svg>